<svg xmlns="http://www.w3.org/2000/svg" viewBox="0 0 100 100"><path d="M80 50c0 16.57-13.43 30-30 30S20 66.57 20 50s13.43-30 30-30 30 13.43 30 30z" fill="#ffca28"/><path d="M80 50c-10 0-15-10-15-10s5-10 15-10z" fill="#ffe082"/><path d="M35 40c2.76 0 5 2.24 5 5s-2.24 5-5 5-5-2.24-5-5 2.24-5 5 5zm20 0c2.76 0 5 2.24 5 5s-2.24 5-5 5-5-2.24-5-5 2.24-5 5 5z" fill="#fff"/><path d="M35 40c1.66 0 3 1.34 3 3s-1.34 3-3 3-3-1.34-3-3 1.34-3 3 3zm20 0c1.66 0 3 1.34 3 3s-1.34 3-3 3-3-1.34-3-3 1.34-3 3 3z" fill="#000"/></svg>